<svg id="flat" height="512" viewBox="0 0 512 512" width="512" xmlns="http://www.w3.org/2000/svg"><path d="m200 336a144.04391 144.04391 0 0 1 -45.113 52.795l-26.887 19.205 8 32h-32l-16-48 48-40v-111.99994h64z" fill="#e9d5c6"/><path d="m488 152v80l-28.68994 28.69a40.12306 40.12306 0 0 1 -3.31006 2.95v.36a63.99827 63.99827 0 0 1 -25.6001 51.2l-6.3999 4.8v120h-16l-16-24v-46.38a34.66757 34.66757 0 0 1 -10.16992 24.55l-29.83008 29.83-16-24 16-24-56-48h-32v56l40 56h-40l-40-48-8-48-22.76-11.38a103.5555 103.5555 0 0 1 -57.24-92.62 48.00395 48.00395 0 0 0 -48 48v11.65a98.63222 98.63222 0 0 1 -64 92.35v-104a120.00531 120.00531 0 0 1 120-120h232v-16a32.004 32.004 0 0 1 32-32l16 40h16l16-40a31.99139 31.99139 0 0 1 32 32z" fill="#f2e7df"/><g fill="#cfb6a4"><path d="m400 200h8a8 8 0 0 1 8 8v8a0 0 0 0 1 0 0h-8a8 8 0 0 1 -8-8v-8a0 0 0 0 1 0 0z"/><path d="m456 200h8a0 0 0 0 1 0 0v8a8 8 0 0 1 -8 8h-8a0 0 0 0 1 0 0v-8a8 8 0 0 1 8-8z" transform="matrix(-1 0 0 -1 912 416)"/><path d="m428 232h8a4 4 0 0 1 4 4v4a8 8 0 0 1 -8 8 8 8 0 0 1 -8-8v-4a4 4 0 0 1 4-4z"/></g><path d="m456 263.64v.36a63.99827 63.99827 0 0 1 -25.6001 51.2l-6.3999 4.8v120h-16l-16-24v-46.38a34.71437 34.71437 0 0 0 -4.95-17.87l-19.05-31.75v-96l36.68994 36.69a38.624 38.624 0 0 0 51.31006 2.95z" fill="#e9d5c6"/><path d="m296 328h-32v-27.43z" fill="#e9d5c6"/></svg>